<svg width="17" height="17" viewBox="0 0 17 17" fill="none" xmlns="http://www.w3.org/2000/svg">
<path d="M15.037 7.19433H14.5V7.16666H8.50004V9.83333H12.2677C11.718 11.3857 10.241 12.5 8.50004 12.5C6.29104 12.5 4.50004 10.709 4.50004 8.5C4.50004 6.291 6.29104 4.49999 8.50004 4.49999C9.51971 4.49999 10.4474 4.88466 11.1537 5.51299L13.0394 3.62733C11.8487 2.51766 10.256 1.83333 8.50004 1.83333C4.81837 1.83333 1.83337 4.81833 1.83337 8.5C1.83337 12.1817 4.81837 15.1667 8.50004 15.1667C12.1817 15.1667 15.1667 12.1817 15.1667 8.5C15.1667 8.053 15.1207 7.61666 15.037 7.19433Z" fill="#FFC107"/>
<path d="M2.60205 5.397L4.79238 7.00333C5.38505 5.536 6.82038 4.49999 8.50005 4.49999C9.51972 4.49999 10.4474 4.88466 11.1537 5.51299L13.0394 3.62733C11.8487 2.51766 10.2561 1.83333 8.50005 1.83333C5.93938 1.83333 3.71872 3.27899 2.60205 5.397Z" fill="#FF3D00"/>
<path d="M8.49994 15.1667C10.2219 15.1667 11.7866 14.5077 12.9696 13.436L10.9063 11.69C10.2145 12.2161 9.36909 12.5007 8.49994 12.5C6.76594 12.5 5.29361 11.3943 4.73894 9.85133L2.56494 11.5263C3.66827 13.6853 5.90894 15.1667 8.49994 15.1667Z" fill="#4CAF50"/>
<path d="M15.037 7.19434H14.5V7.16667H8.5V9.83334H12.2677C12.0047 10.5721 11.5311 11.2177 10.9053 11.6903L10.9063 11.6897L12.9697 13.4357C12.8237 13.5683 15.1667 11.8333 15.1667 8.50001C15.1667 8.05301 15.1207 7.61667 15.037 7.19434Z" fill="#1976D2"/>
</svg>
