<svg width="97" height="98" viewBox="0 0 97 98" fill="none" xmlns="http://www.w3.org/2000/svg">
<path d="M88 54.5C88 78.5244 68.3005 98 44 98C19.6995 98 0 78.5244 0 54.5C0 30.4756 19.6995 11 44 11C68.3005 11 88 30.4756 88 54.5Z" fill="#F0FFF3"/>
<path d="M15 37.0412L21.1192 30.6982L40.8973 44.5259C41.3708 43.9385 41.8057 43.4228 42.2241 42.8713C48.396 34.9106 55.0829 27.3646 62.2417 20.2818C69.363 13.299 76.831 6.71055 85.0753 1.06802C86.0972 0.320755 87.3434 -0.0538937 88.607 0.00626287C91.0046 0.108303 93.4105 0.0338372 95.8136 0.036595C96.1412 0.036595 96.4687 0.069687 96.7991 0.086234L97 0.375811C96.7293 0.510842 96.4721 0.671527 96.232 0.855672C86.8013 9.40495 78.5927 19.0574 71.1605 29.3661C64.7247 38.2684 58.5146 47.3693 52.4201 56.5032C48.6489 62.1595 45.2631 68.0861 41.7232 73.8776L41.0405 75C32.9118 61.7734 23.8444 49.3466 15 37.0412Z" fill="#16A335"/>
</svg>
