<svg width="40" height="40" viewBox="0 0 40 40" fill="none" xmlns="http://www.w3.org/2000/svg">
<circle cx="20" cy="20" r="20" fill="#F0FFF3"/>
<path fill-rule="evenodd" clip-rule="evenodd" d="M11.1246 18.0486L10.0132 28.0487C9.9798 28.3483 10.01 28.6515 10.1019 28.9386C10.1937 29.2257 10.3451 29.4902 10.5461 29.7149C10.7471 29.9395 10.9933 30.1192 11.2685 30.2422C11.5437 30.3652 11.8417 30.4287 12.1432 30.4287H20.5974C20.3416 29.9865 20.1434 29.5069 20.013 29.0001H12.1432C12.0427 29.0001 11.9434 28.9789 11.8517 28.938C11.76 28.897 11.678 28.8371 11.611 28.7623C11.544 28.6875 11.4935 28.5994 11.4629 28.5037C11.4323 28.4081 11.4221 28.3071 11.4332 28.2072L12.5446 18.2058C12.5643 18.0312 12.6475 17.8701 12.7785 17.7531C12.9095 17.6361 13.0804 17.5714 13.256 17.5715H24.9832H24.9833C25.1591 17.5715 25.3288 17.6363 25.4598 17.7536C25.5908 17.8709 25.6739 18.0324 25.6932 18.2072L25.6934 18.2072L26.102 21.884C26.617 21.9336 27.112 22.0516 27.5778 22.2287L27.1132 18.0486C27.0549 17.5245 26.8053 17.0404 26.4124 16.6888C26.0201 16.3378 25.511 16.1435 24.9847 16.1429H24.9824H24.9818H13.256C12.729 16.1432 12.2191 16.3377 11.8264 16.6893C11.4337 17.0408 11.1829 17.5248 11.1246 18.0486ZM11.4332 28.2072L10.0132 28.0501V28.0487L11.4332 28.2072ZM15.5475 14.7143V14C15.5475 13.0528 15.9238 12.1444 16.5935 11.4746C17.2633 10.8049 18.1717 10.4286 19.1189 10.4286C20.0661 10.4286 20.9745 10.8049 21.6443 11.4746C22.3141 12.1444 22.6904 13.0528 22.6904 14V14.7143H24.1189V14C24.1189 12.6739 23.5922 11.4022 22.6545 10.4645C21.7168 9.52679 20.445 9 19.1189 9C17.7928 9 16.5211 9.52679 15.5834 10.4645C14.6457 11.4022 14.1189 12.6739 14.1189 14V14.7143H15.5475ZM28.1356 26.5228L25.1142 29.5443L23.2928 27.7228L23.8928 27.1228L25.1142 28.3443L27.5356 25.9228L28.1356 26.5228ZM24.0428 31.5209C24.5642 31.746 25.1213 31.8586 25.7142 31.8586C26.3071 31.8589 26.8642 31.7464 27.3856 31.5213C27.9071 31.2962 28.3606 30.9907 28.7464 30.605C29.1318 30.2193 29.4371 29.7657 29.6622 29.2443C29.8874 28.7229 29.9999 28.1657 29.9999 27.5728C30.0002 26.98 29.8878 26.4228 29.6627 25.9014C29.4375 25.38 29.1321 24.9264 28.7464 24.5407C28.3606 24.1553 27.9071 23.85 27.3856 23.6248C26.8642 23.3997 26.3071 23.2871 25.7142 23.2871C25.1213 23.2874 24.5642 23.4 24.0428 23.6248C23.5213 23.8497 23.0678 24.155 22.682 24.5407C22.2966 24.9264 21.9913 25.38 21.7662 25.9014C21.541 26.4228 21.4285 26.98 21.4285 27.5728C21.4288 28.1657 21.5413 28.7229 21.7662 29.2443C21.991 29.7657 22.2963 30.2193 22.682 30.605C23.0678 30.9904 23.5213 31.2957 24.0428 31.5209ZM28.1464 30.005C27.4821 30.6693 26.6714 31.0014 25.7142 31.0014C24.7571 31.0014 23.9463 30.6693 23.282 30.005C22.6178 29.3407 22.2856 28.53 22.2856 27.5728C22.2856 26.6157 22.6178 25.805 23.282 25.1407C23.9463 24.4764 24.7571 24.1443 25.7142 24.1443C26.6714 24.1443 27.4821 24.4764 28.1464 25.1407C28.8106 25.805 29.1428 26.6157 29.1428 27.5728C29.1428 28.53 28.8106 29.3407 28.1464 30.005Z" fill="#16A335"/>
<circle cx="20" cy="20" r="20" fill="#FF7417"/>
<path d="M18.3608 26.9472L14.0879 26.019L14.8778 21.0261C15.0189 20.1464 15.4534 19.3679 16.0858 18.8615C16.7182 18.355 17.497 18.162 18.2511 18.3248L22.5296 19.253L21.7178 24.2395C21.5777 25.1165 21.1462 25.8933 20.5173 26.4005C19.8885 26.9077 19.1133 27.1042 18.3608 26.9472Z" fill="white"/>
<path d="M28.8468 23.337L24.5684 22.4088L25.3637 17.4159C25.433 16.9799 25.5752 16.5641 25.7822 16.1923C25.9893 15.8205 26.2572 15.4999 26.5705 15.2491C26.8838 14.9982 27.2364 14.8218 27.6082 14.7301C27.98 14.6384 28.3636 14.6331 28.7371 14.7146L32.9991 15.6556L32.2037 20.6421C32.0625 21.5175 31.6302 22.2922 31.0013 22.7971C30.3724 23.302 29.5979 23.4961 28.8468 23.337Z" fill="white"/>
<path d="M9.98394 18.8562L7 18.2161L7.54852 14.7402C7.58809 14.466 7.67424 14.2038 7.80188 13.9689C7.92953 13.7341 8.0961 13.5315 8.29182 13.3728C8.48754 13.2142 8.70845 13.1028 8.94157 13.0452C9.1747 12.9876 9.41533 12.985 9.64934 13.0375L12.6333 13.6776L12.0848 17.1535C12.0452 17.4277 11.959 17.6899 11.8314 17.9247C11.7037 18.1595 11.5372 18.3622 11.3415 18.5209C11.1457 18.6795 10.9248 18.7909 10.6917 18.8484C10.4586 18.906 10.2179 18.9087 9.98394 18.8562Z" fill="white"/>
</svg>
