<svg width="60" height="60" viewBox="0 0 60 60" fill="none" xmlns="http://www.w3.org/2000/svg">
<circle cx="30" cy="30" r="30" fill="#A94B0C"/>
<path fill-rule="evenodd" clip-rule="evenodd" d="M33.75 23.25C33.75 22.2554 33.3549 21.3016 32.6517 20.5983C31.9484 19.8951 30.9946 19.5 30 19.5C29.0054 19.5 28.0516 19.8951 27.3483 20.5983C26.6451 21.3016 26.25 22.2554 26.25 23.25V24H33.75V23.25ZM35.25 23.25V24H40.5V39C40.5 39.7956 40.1839 40.5587 39.6213 41.1213C39.0587 41.6839 38.2956 42 37.5 42H22.5C21.7044 42 20.9413 41.6839 20.3787 41.1213C19.8161 40.5587 19.5 39.7956 19.5 39V24H24.75V23.25C24.75 21.8576 25.3031 20.5223 26.2877 19.5377C27.2723 18.5531 28.6076 18 30 18C31.3924 18 32.7277 18.5531 33.7123 19.5377C34.6969 20.5223 35.25 21.8576 35.25 23.25ZM34.281 31.281C34.4218 31.1402 34.5009 30.9492 34.5009 30.75C34.5009 30.5508 34.4218 30.3598 34.281 30.219C34.1402 30.0782 33.9492 29.9991 33.75 29.9991C33.5508 29.9991 33.3598 30.0782 33.219 30.219L29.25 34.1895L27.531 32.469C27.4613 32.3993 27.3785 32.344 27.2874 32.3062C27.1963 32.2685 27.0986 32.2491 27 32.2491C26.9014 32.2491 26.8037 32.2685 26.7126 32.3062C26.6215 32.344 26.5387 32.3993 26.469 32.469C26.3993 32.5387 26.344 32.6215 26.3062 32.7126C26.2685 32.8037 26.2491 32.9014 26.2491 33C26.2491 33.0986 26.2685 33.1963 26.3062 33.2874C26.344 33.3785 26.3993 33.4613 26.469 33.531L28.719 35.781C28.7887 35.8508 28.8714 35.9063 28.9625 35.9441C29.0537 35.9819 29.1513 36.0013 29.25 36.0013C29.3487 36.0013 29.4463 35.9819 29.5375 35.9441C29.6286 35.9063 29.7113 35.8508 29.781 35.781L34.281 31.281Z" fill="white"/>
</svg>
