<svg width="40" height="40" viewBox="0 0 40 40" fill="none" xmlns="http://www.w3.org/2000/svg">
<circle cx="20" cy="20" r="20" fill="#FFF6F0"/>
<path d="M15 31C14.45 31 13.9793 30.8043 13.588 30.413C13.196 30.021 13 29.55 13 29C13 28.45 13.196 27.979 13.588 27.587C13.9793 27.1957 14.45 27 15 27C15.55 27 16.0207 27.1957 16.412 27.587C16.804 27.979 17 28.45 17 29C17 29.55 16.804 30.021 16.412 30.413C16.0207 30.8043 15.55 31 15 31ZM25 31C24.45 31 23.9793 30.8043 23.588 30.413C23.196 30.021 23 29.55 23 29C23 28.45 23.196 27.979 23.588 27.587C23.9793 27.1957 24.45 27 25 27C25.55 27 26.021 27.1957 26.413 27.587C26.8043 27.979 27 28.45 27 29C27 29.55 26.8043 30.021 26.413 30.413C26.021 30.8043 25.55 31 25 31ZM14.15 15L16.55 20H23.55L26.3 15H14.15ZM11.625 26L14.6 20.6L11 13H9V11H12.25L13.2 13H29.7L24.725 22H16.1L15 24H27V26H11.625Z" fill="#A94B0C"/>
</svg>
