<svg width="60" height="60" viewBox="0 0 60 60" fill="none" xmlns="http://www.w3.org/2000/svg">
<circle cx="30" cy="30" r="30" fill="#16A335"/>
<path d="M17.5 40H20C20.6875 40 21.25 39.4375 21.25 38.75V27.5C21.25 26.8125 20.6875 26.25 20 26.25H17.5V40ZM42.2875 31.1C42.425 30.7875 42.5 30.45 42.5 30.1V28.75C42.5 27.375 41.375 26.25 40 26.25H33.125L34.275 20.4375C34.3375 20.1625 34.3 19.8625 34.175 19.6125C33.8908 19.0495 33.5195 18.5349 33.075 18.0875L32.5 17.5L24.4875 25.5125C24.0125 25.9875 23.75 26.625 23.75 27.2875V37.0875C23.7533 37.8611 24.0629 38.6019 24.6111 39.1477C25.1593 39.6936 25.9014 40 26.675 40H36.8125C37.6875 40 38.5125 39.5375 38.9625 38.7875L42.2875 31.1Z" fill="white"/>
</svg>
