<svg width="40" height="40" viewBox="0 0 40 40" fill="none" xmlns="http://www.w3.org/2000/svg">
<circle cx="20" cy="20" r="20" fill="#FBFAF9"/>
<path fill-rule="evenodd" clip-rule="evenodd" d="M10.0132 28.0487L11.1246 18.0486C11.1829 17.5248 11.4337 17.0408 11.8264 16.6893C12.2191 16.3377 12.729 16.1432 13.256 16.1429H24.9818C24.982 16.1429 24.9822 16.1429 24.9824 16.1429C24.9832 16.1429 24.9839 16.1429 24.9847 16.1429C25.511 16.1435 26.0201 16.3378 26.4124 16.6888C26.8053 17.0404 27.0549 17.5245 27.1132 18.0486L27.5778 22.2287C27.112 22.0516 26.617 21.9336 26.102 21.884L25.6934 18.2072L25.6932 18.2072C25.6739 18.0324 25.5908 17.8709 25.4598 17.7536C25.3288 17.6363 25.1591 17.5715 24.9833 17.5715C24.9833 17.5715 24.9833 17.5715 24.9832 17.5715H13.256C13.0804 17.5714 12.9095 17.6361 12.7785 17.7531C12.6475 17.8701 12.5643 18.0312 12.5446 18.2058L11.4332 28.2072L10.0132 28.0487ZM10.0132 28.0487V28.0501L11.4332 28.2072C11.4221 28.3071 11.4322 28.4081 11.4629 28.5037C11.4935 28.5994 11.544 28.6875 11.611 28.7623C11.678 28.8371 11.76 28.897 11.8517 28.938C11.9434 28.9789 12.0427 29.0001 12.1432 29.0001H20.013C20.1434 29.5069 20.3416 29.9865 20.5974 30.4287H12.1432C11.8417 30.4287 11.5437 30.3652 11.2685 30.2422C10.9933 30.1192 10.7471 29.9395 10.5461 29.7149C10.3451 29.4902 10.1937 29.2257 10.1019 28.9386C10.01 28.6515 9.9798 28.3483 10.0132 28.0487ZM15.5475 14V14.7143H14.1189V14C14.1189 12.6739 14.6457 11.4022 15.5834 10.4645C16.5211 9.52679 17.7928 9 19.1189 9C20.445 9 21.7168 9.52679 22.6545 10.4645C23.5922 11.4022 24.1189 12.6739 24.1189 14V14.7143H22.6904V14C22.6904 13.0528 22.3141 12.1444 21.6443 11.4746C20.9745 10.8049 20.0661 10.4286 19.1189 10.4286C18.1717 10.4286 17.2633 10.8049 16.5935 11.4746C15.9238 12.1444 15.5475 13.0528 15.5475 14Z" fill="#605042"/>
<path d="M25.285 30.713C26.1942 30.713 27.0661 30.3518 27.709 29.709C28.3518 29.0661 28.713 28.1942 28.713 27.285C28.713 26.3758 28.3518 25.5039 27.709 24.861C27.0661 24.2182 26.1942 23.857 25.285 23.857C24.3758 23.857 23.5039 24.2182 22.861 24.861C22.2182 25.5039 21.857 26.3758 21.857 27.285C21.857 28.1942 22.2182 29.0661 22.861 29.709C23.5039 30.3518 24.3758 30.713 25.285 30.713ZM25.285 23C25.8477 23 26.4049 23.1108 26.9248 23.3262C27.4447 23.5415 27.9171 23.8571 28.315 24.255C28.7129 24.6529 29.0285 25.1253 29.2438 25.6452C29.4592 26.1651 29.57 26.7223 29.57 27.285C29.57 28.4215 29.1185 29.5114 28.315 30.315C27.5114 31.1185 26.4215 31.57 25.285 31.57C22.9154 31.57 21 29.6417 21 27.285C21 26.1485 21.4515 25.0586 22.255 24.255C23.0586 23.4515 24.1485 23 25.285 23ZM25.4992 25.1425V27.3921L27.4275 28.5362L27.1061 29.0633L24.8565 27.7135V25.1425H25.4992Z" fill="#605042"/>
</svg>
