<svg width="10" height="6" viewBox="0 0 10 6" fill="none" xmlns="http://www.w3.org/2000/svg">
<path d="M9.54995 1.43751L5.34995 5.65001C5.29995 5.70001 5.24579 5.73534 5.18745 5.75601C5.12912 5.77701 5.06662 5.78751 4.99995 5.78751C4.93329 5.78751 4.87079 5.77701 4.81245 5.75601C4.75412 5.73534 4.69995 5.70001 4.64995 5.65001L0.437451 1.43751C0.320784 1.32084 0.262451 1.17501 0.262451 1.00001C0.262451 0.825006 0.324951 0.675006 0.449951 0.550006C0.574951 0.425006 0.720784 0.362506 0.887451 0.362506C1.05412 0.362506 1.19995 0.425006 1.32495 0.550006L4.99995 4.22501L8.67495 0.550006C8.79162 0.433339 8.93529 0.375006 9.10595 0.375006C9.27695 0.375006 9.42495 0.437506 9.54995 0.562506C9.67495 0.687506 9.73745 0.833339 9.73745 1.00001C9.73745 1.16667 9.67495 1.31251 9.54995 1.43751Z" fill="#483C31"/>
</svg>
