<svg width="31" height="30" viewBox="0 0 31 30" fill="none" xmlns="http://www.w3.org/2000/svg">
<path d="M9.5 30C8.675 30 7.969 29.7065 7.382 29.1195C6.794 28.5315 6.5 27.825 6.5 27C6.5 26.175 6.794 25.4685 7.382 24.8805C7.969 24.2935 8.675 24 9.5 24C10.325 24 11.031 24.2935 11.618 24.8805C12.206 25.4685 12.5 26.175 12.5 27C12.5 27.825 12.206 28.5315 11.618 29.1195C11.031 29.7065 10.325 30 9.5 30ZM24.5 30C23.675 30 22.969 29.7065 22.382 29.1195C21.794 28.5315 21.5 27.825 21.5 27C21.5 26.175 21.794 25.4685 22.382 24.8805C22.969 24.2935 23.675 24 24.5 24C25.325 24 26.0315 24.2935 26.6195 24.8805C27.2065 25.4685 27.5 26.175 27.5 27C27.5 27.825 27.2065 28.5315 26.6195 29.1195C26.0315 29.7065 25.325 30 24.5 30ZM8.225 6L11.825 13.5H22.325L26.45 6H8.225ZM9.5 22.5C8.375 22.5 7.525 22.006 6.95 21.018C6.375 20.031 6.35 19.05 6.875 18.075L8.9 14.4L3.5 3H1.9625C1.5375 3 1.1875 2.856 0.9125 2.568C0.6375 2.281 0.5 1.925 0.5 1.5C0.5 1.075 0.644 0.7185 0.932 0.4305C1.219 0.1435 1.575 0 2 0H4.4375C4.7125 0 4.975 0.0750001 5.225 0.225C5.475 0.375 5.6625 0.5875 5.7875 0.8625L6.8 3H28.925C29.6 3 30.0625 3.25 30.3125 3.75C30.5625 4.25 30.55 4.775 30.275 5.325L24.95 14.925C24.675 15.425 24.3125 15.8125 23.8625 16.0875C23.4125 16.3625 22.9 16.5 22.325 16.5H11.15L9.5 19.5H26.0375C26.4625 19.5 26.8125 19.6435 27.0875 19.9305C27.3625 20.2185 27.5 20.575 27.5 21C27.5 21.425 27.356 21.781 27.068 22.068C26.781 22.356 26.425 22.5 26 22.5H9.5Z" fill="#483C31"/>
</svg>
