<svg width="11" height="11" viewBox="0 0 11 11" fill="none" xmlns="http://www.w3.org/2000/svg">
<path d="M10.875 10.3448L8.04298 7.51276C8.72353 6.69576 9.06289 5.64783 8.99048 4.58698C8.91807 3.52613 8.43945 2.53403 7.6542 1.81708C6.86894 1.10013 5.83751 0.713516 4.77447 0.73767C3.71142 0.761824 2.69861 1.19489 1.94674 1.94677C1.19486 2.69865 0.761794 3.71145 0.73764 4.7745C0.713485 5.83754 1.1001 6.86897 1.81705 7.65423C2.534 8.43948 3.5261 8.9181 4.58695 8.99051C5.6478 9.06293 6.69572 8.72356 7.51273 8.04301L10.3447 10.875L10.875 10.3448ZM1.49998 4.87501C1.49998 4.2075 1.69792 3.55498 2.06877 2.99996C2.43962 2.44495 2.96673 2.01237 3.58343 1.75692C4.20013 1.50147 4.87873 1.43464 5.53341 1.56486C6.1881 1.69509 6.78947 2.01653 7.26147 2.48853C7.73347 2.96053 8.05491 3.5619 8.18513 4.21658C8.31536 4.87127 8.24852 5.54987 7.99308 6.16657C7.73763 6.78327 7.30505 7.31037 6.75003 7.68122C6.19502 8.05207 5.54249 8.25001 4.87498 8.25001C3.98018 8.24902 3.12231 7.89312 2.48959 7.2604C1.85687 6.62768 1.50097 5.76981 1.49998 4.87501Z" fill="#BFB4A3"/>
</svg>
